<svg xmlns="http://www.w3.org/2000/svg" xmlns:xlink="http://www.w3.org/1999/xlink" width="667px" height="584px" version="1.1"><defs/><g transform="translate(0.5,0.5)"><rect x="2" y="377" width="120" height="40" fill="#ffffff" stroke="#000000" stroke-width="2" pointer-events="none"/><g fill="#000000" font-family="Helvetica" text-anchor="middle" font-size="12px"><text x="61.75" y="400.75">Ethernet</text></g><ellipse cx="227" cy="397" rx="35" ry="35" fill="#ffffff" stroke="#000000" stroke-width="2" pointer-events="none"/><g fill="#000000" font-family="Helvetica" text-anchor="middle" font-size="12px"><text x="226.75" y="393.75">Tcp</text><text x="226.75" y="407.75">Connection</text></g><path d="M 130.24 397 L 183.76 397" fill="none" stroke="#000000" stroke-width="2" stroke-miterlimit="10" pointer-events="none"/><path d="M 124.24 397 L 132.24 393 L 130.24 397 L 132.24 401 Z" fill="#000000" stroke="#000000" stroke-width="2" stroke-miterlimit="10" pointer-events="none"/><path d="M 189.76 397 L 181.76 401 L 183.76 397 L 181.76 393 Z" fill="#000000" stroke="#000000" stroke-width="2" stroke-miterlimit="10" pointer-events="none"/><g fill="#000000" font-family="Helvetica" text-anchor="middle" font-size="11px"><rect fill="#ffffff" stroke="none" x="146" y="391" width="23" height="14" stroke-width="0"/><text x="157" y="400.5">TCP</text></g><rect x="2" y="192" width="120" height="40" fill="#ffffff" stroke="#000000" stroke-width="2" pointer-events="none"/><g fill="#000000" font-family="Helvetica" text-anchor="middle" font-size="12px"><text x="61.75" y="208.75">Mouse and</text><text x="61.75" y="222.75">Keyboard</text></g><ellipse cx="407" cy="397" rx="35" ry="35" fill="#ffffff" stroke="#000000" stroke-width="2" pointer-events="none"/><g fill="#000000" font-family="Helvetica" text-anchor="middle" font-size="12px"><text x="406.75" y="393.75">Tcp</text><text x="406.75" y="407.75">Connection</text></g><ellipse cx="537" cy="212" rx="35" ry="35" fill="#ffffff" stroke="#000000" stroke-width="2" pointer-events="none"/><g fill="#000000" font-family="Helvetica" text-anchor="middle" font-size="12px"><text x="536.75" y="208.75">CAN</text><text x="536.75" y="222.75">Table</text></g><ellipse cx="487" cy="547" rx="35" ry="35" fill="#ffffff" stroke="#000000" stroke-width="2" pointer-events="none"/><g fill="#000000" font-family="Helvetica" text-anchor="middle" font-size="12px"><text x="486.75" y="550.75">Field</text></g><ellipse cx="407" cy="297" rx="35" ry="35" fill="#ffffff" stroke="#000000" stroke-width="2" pointer-events="none"/><g fill="#000000" font-family="Helvetica" text-anchor="middle" font-size="12px"><text x="406.75" y="293.75">Edit</text><text x="406.75" y="307.75">Host</text></g><ellipse cx="407" cy="37" rx="35" ry="35" fill="#ffffff" stroke="#000000" stroke-width="2" pointer-events="none"/><g fill="#000000" font-family="Helvetica" text-anchor="middle" font-size="12px"><text x="406.75" y="33.75">Remote</text><text x="406.75" y="47.75">Control</text></g><path d="M 270.24 397 L 363.76 397" fill="none" stroke="#000000" stroke-width="2" stroke-miterlimit="10" pointer-events="none"/><path d="M 264.24 397 L 272.24 393 L 270.24 397 L 272.24 401 Z" fill="#000000" stroke="#000000" stroke-width="2" stroke-miterlimit="10" pointer-events="none"/><path d="M 369.76 397 L 361.76 401 L 363.76 397 L 361.76 393 Z" fill="#000000" stroke="#000000" stroke-width="2" stroke-miterlimit="10" pointer-events="none"/><g fill="#000000" font-family="Helvetica" text-anchor="middle" font-size="12px"><rect fill="#ffffff" stroke="none" x="282" y="386" width="63" height="30" stroke-width="0"/><text x="312.79" y="396.5">MsgQueue:</text><text x="312.79" y="410.5">TCP</text></g><ellipse cx="407" cy="212" rx="35" ry="35" fill="#ffffff" stroke="#000000" stroke-width="2" pointer-events="none"/><g fill="#000000" font-family="Helvetica" text-anchor="middle" font-size="12px"><text x="406.75" y="201.75">CAN</text><text x="406.75" y="215.75">Table</text><text x="406.75" y="229.75">Control</text></g><ellipse cx="407" cy="127" rx="35" ry="35" fill="#ffffff" stroke="#000000" stroke-width="2" pointer-events="none"/><g fill="#000000" font-family="Helvetica" text-anchor="middle" font-size="12px"><text x="406.75" y="123.75">Send</text><text x="406.75" y="137.75">CAN</text></g><ellipse cx="337" cy="547" rx="35" ry="35" fill="#ffffff" stroke="#000000" stroke-width="2" pointer-events="none"/><g fill="#000000" font-family="Helvetica" text-anchor="middle" font-size="12px"><text x="336.75" y="543.75">CAN</text><text x="336.75" y="557.75">Packer</text></g><path d="M 373.76 422 Q 337 422 337 503.76" fill="none" stroke="#000000" stroke-width="2" stroke-miterlimit="10" pointer-events="none"/><path d="M 379.76 422 L 371.76 426 L 373.76 422 L 371.76 418 Z" fill="#000000" stroke="#000000" stroke-width="2" stroke-miterlimit="10" pointer-events="none"/><path d="M 337 509.76 L 333 501.76 L 337 503.76 L 341 501.76 Z" fill="#000000" stroke="#000000" stroke-width="2" stroke-miterlimit="10" pointer-events="none"/><g fill="#000000" font-family="Helvetica" text-anchor="middle" font-size="12px"><rect fill="#ffffff" stroke="none" x="326" y="430" width="27" height="30" stroke-width="0"/><text x="338.5" y="441.41">TCP</text><text x="338.5" y="455.41">Data</text></g><path d="M 407 432 Q 407 472 447 472 Q 487 472 487 503.76" fill="none" stroke="#000000" stroke-width="2" stroke-miterlimit="10" pointer-events="none"/><path d="M 487 509.76 L 483 501.76 L 487 503.76 L 491 501.76 Z" fill="#000000" stroke="#000000" stroke-width="2" stroke-miterlimit="10" pointer-events="none"/><g fill="#000000" font-family="Helvetica" text-anchor="middle" font-size="11px"><rect fill="#ffffff" stroke="none" x="435" y="460" width="26" height="27" stroke-width="0"/><text x="447" y="469">CAN</text><text x="447" y="482">Data</text></g><path d="M 407 332 Q 407 332 407 353.76" fill="none" stroke="#000000" stroke-width="2" stroke-miterlimit="10" pointer-events="none"/><path d="M 407 359.76 L 403 351.76 L 407 353.76 L 411 351.76 Z" fill="#000000" stroke="#000000" stroke-width="2" stroke-miterlimit="10" pointer-events="none"/><path d="M 432 372 Q 512 372 512 304.5 Q 512 237 440.24 237" fill="none" stroke="#000000" stroke-width="2" stroke-miterlimit="10" pointer-events="none"/><path d="M 434.24 237 L 442.24 233 L 440.24 237 L 442.24 241 Z" fill="#000000" stroke="#000000" stroke-width="2" stroke-miterlimit="10" pointer-events="none"/><g fill="#000000" font-family="Helvetica" text-anchor="middle" font-size="12px"><rect fill="#ffffff" stroke="none" x="503" y="289" width="27" height="30" stroke-width="0"/><text x="515.5" y="299.51">CAN</text><text x="515.5" y="313.51">Data</text></g><path d="M 442 212 Q 442 212 493.76 212" fill="none" stroke="#000000" stroke-width="2" stroke-miterlimit="10" pointer-events="none"/><path d="M 499.76 212 L 491.76 216 L 493.76 212 L 491.76 208 Z" fill="#000000" stroke="#000000" stroke-width="2" stroke-miterlimit="10" pointer-events="none"/><path d="M 442 127 Q 602 127 602 262 Q 602 397 450.24 397" fill="none" stroke="#000000" stroke-width="2" stroke-miterlimit="10" pointer-events="none"/><path d="M 444.24 397 L 452.24 393 L 450.24 397 L 452.24 401 Z" fill="#000000" stroke="#000000" stroke-width="2" stroke-miterlimit="10" pointer-events="none"/><g fill="#000000" font-family="Helvetica" text-anchor="middle" font-size="11px"><rect fill="#ffffff" stroke="none" x="579" y="250" width="48" height="27" stroke-width="0"/><text x="602" y="259">CAN</text><text x="602" y="272">message</text></g><path d="M 122 212 Q 252 212 252 169.5 Q 252 127 363.76 127" fill="none" stroke="#000000" stroke-width="2" stroke-miterlimit="10" pointer-events="none"/><path d="M 369.76 127 L 361.76 131 L 363.76 127 L 361.76 123 Z" fill="#000000" stroke="#000000" stroke-width="2" stroke-miterlimit="10" pointer-events="none"/><path d="M 122 212 Q 122 212 363.76 212" fill="none" stroke="#000000" stroke-width="2" stroke-miterlimit="10" pointer-events="none"/><path d="M 369.76 212 L 361.76 216 L 363.76 212 L 361.76 208 Z" fill="#000000" stroke="#000000" stroke-width="2" stroke-miterlimit="10" pointer-events="none"/><path d="M 122 212 Q 247 212 247 254.5 Q 247 297 363.76 297" fill="none" stroke="#000000" stroke-width="2" stroke-miterlimit="10" pointer-events="none"/><path d="M 369.76 297 L 361.76 301 L 363.76 297 L 361.76 293 Z" fill="#000000" stroke="#000000" stroke-width="2" stroke-miterlimit="10" pointer-events="none"/><path d="M 122 212 Q 247 212 247 124.5 Q 247 37 363.76 37" fill="none" stroke="#000000" stroke-width="2" stroke-miterlimit="10" pointer-events="none"/><path d="M 369.76 37 L 361.76 41 L 363.76 37 L 361.76 33 Z" fill="#000000" stroke="#000000" stroke-width="2" stroke-miterlimit="10" pointer-events="none"/><path d="M 442 37 Q 642 37 642 217 Q 642 397 450.24 397" fill="none" stroke="#000000" stroke-width="2" stroke-miterlimit="10" pointer-events="none"/><path d="M 444.24 397 L 452.24 393 L 450.24 397 L 452.24 401 Z" fill="#000000" stroke="#000000" stroke-width="2" stroke-miterlimit="10" pointer-events="none"/><g fill="#000000" font-family="Helvetica" text-anchor="middle" font-size="11px"><rect fill="#ffffff" stroke="none" x="619" y="205" width="48" height="27" stroke-width="0"/><text x="642" y="214">CAN</text><text x="642" y="227">message</text></g></g></svg>