<svg xmlns="http://www.w3.org/2000/svg" xmlns:xlink="http://www.w3.org/1999/xlink" width="702px" height="702px" version="1.1"><defs/><g transform="translate(0.5,0.5)"><rect x="402" y="2" width="120" height="40" fill="#ffffff" stroke="#000000" stroke-width="2" pointer-events="none"/><g fill="#000000" font-family="Helvetica" text-anchor="middle" font-size="12px"><text x="461.75" y="25.75">Ethernet</text></g><rect x="2" y="482" width="120" height="40" fill="#ffffff" stroke="#000000" stroke-width="2" pointer-events="none"/><g fill="#000000" font-family="Helvetica" text-anchor="middle" font-size="12px"><text x="61.75" y="505.75">CAN</text></g><ellipse cx="272" cy="557" rx="35" ry="35" fill="#ffffff" stroke="#000000" stroke-width="2" pointer-events="none"/><g fill="#000000" font-family="Helvetica" text-anchor="middle" font-size="12px"><text x="271.75" y="553.75">CAN</text><text x="271.75" y="567.75">Eingang</text></g><ellipse cx="272" cy="447" rx="35" ry="35" fill="#ffffff" stroke="#000000" stroke-width="2" pointer-events="none"/><g fill="#000000" font-family="Helvetica" text-anchor="middle" font-size="12px"><text x="271.75" y="443.75">CAN</text><text x="271.75" y="457.75">Ausgang</text></g><ellipse cx="462" cy="447" rx="40" ry="40" fill="#ffffff" stroke="#0000ff" stroke-width="2" pointer-events="none"/><g fill="#000000" font-family="Helvetica" text-anchor="middle" font-size="12px"><text x="461.75" y="450.75">Navigation</text></g><ellipse cx="462" cy="332" rx="40" ry="40" fill="#ffffff" stroke="#000000" stroke-width="2" pointer-events="none"/><g fill="#000000" font-family="Helvetica" text-anchor="middle" font-size="12px"><text x="461.75" y="335.75">Debug</text></g><ellipse cx="462" cy="612" rx="40" ry="40" fill="#ffffff" stroke="#0000ff" stroke-width="2" pointer-events="none"/><g fill="#000000" font-family="Helvetica" text-anchor="middle" font-size="12px"><text x="461.75" y="615.75">Aufgaben</text></g><ellipse cx="632" cy="512" rx="40" ry="40" fill="#ffffff" stroke="#0000ff" stroke-width="2" pointer-events="none"/><g fill="#000000" font-family="Helvetica" text-anchor="middle" font-size="12px"><text x="631.75" y="515.75">Spiellogik</text></g><ellipse cx="462" cy="142" rx="40" ry="40" fill="#ffffff" stroke="#000000" stroke-width="2" pointer-events="none"/><g fill="#000000" font-family="Helvetica" text-anchor="middle" font-size="12px"><text x="461.75" y="138.75">Wait for new</text><text x="461.75" y="152.75">Connections</text></g><ellipse cx="304" cy="142" rx="40" ry="40" fill="#ffffff" stroke="#000000" stroke-width="2" pointer-events="none"/><g fill="#000000" font-family="Helvetica" text-anchor="middle" font-size="12px"><text x="303.75" y="145.75">Connection1</text></g><ellipse cx="612" cy="142" rx="40" ry="40" fill="#ffffff" stroke="#000000" stroke-width="2" pointer-events="none"/><g fill="#000000" font-family="Helvetica" text-anchor="middle" font-size="12px"><text x="611.75" y="145.75">Connection2</text></g><path d="M 122 512 Q 180 512 180 534.5 Q 180 557 228.76 557" fill="none" stroke="#000000" stroke-width="2" stroke-miterlimit="10" pointer-events="none"/><path d="M 234.76 557 L 226.76 561 L 228.76 557 L 226.76 553 Z" fill="#000000" stroke="#000000" stroke-width="2" stroke-miterlimit="10" pointer-events="none"/><g fill="#000000" font-family="Helvetica" text-anchor="middle" font-size="11px"><rect fill="#ffffff" stroke="none" x="151" y="522" width="60" height="27" stroke-width="0"/><text x="180" y="531">MsgQueue:</text><text x="180" y="544">CAN</text></g><path d="M 130.24 492 Q 180 492 180 469.5 Q 180 447 237 447" fill="none" stroke="#000000" stroke-width="2" stroke-miterlimit="10" pointer-events="none"/><path d="M 124.24 492 L 132.24 488 L 130.24 492 L 132.24 496 Z" fill="#000000" stroke="#000000" stroke-width="2" stroke-miterlimit="10" pointer-events="none"/><g fill="#000000" font-family="Helvetica" text-anchor="middle" font-size="11px"><rect fill="#ffffff" stroke="none" x="151" y="458" width="60" height="27" stroke-width="0"/><text x="180" y="467">MsgQueue:</text><text x="180" y="480">CAN</text></g><path d="M 492 50.24 Q 492 72 552 72 Q 612 72 612 93.76" fill="none" stroke="#000000" stroke-width="2" stroke-miterlimit="10" pointer-events="none"/><path d="M 492 44.24 L 496 52.24 L 492 50.24 L 488 52.24 Z" fill="#000000" stroke="#000000" stroke-width="2" stroke-miterlimit="10" pointer-events="none"/><path d="M 612 99.76 L 608 91.76 L 612 93.76 L 616 91.76 Z" fill="#000000" stroke="#000000" stroke-width="2" stroke-miterlimit="10" pointer-events="none"/><g fill="#000000" font-family="Helvetica" text-anchor="middle" font-size="11px"><rect fill="#ffffff" stroke="none" x="541" y="57" width="23" height="14" stroke-width="0"/><text x="552" y="66">TCP</text></g><path d="M 432 50.24 Q 432 72 368 72 Q 304 72 304 93.76" fill="none" stroke="#000000" stroke-width="2" stroke-miterlimit="10" pointer-events="none"/><path d="M 432 44.24 L 436 52.24 L 432 50.24 L 428 52.24 Z" fill="#000000" stroke="#000000" stroke-width="2" stroke-miterlimit="10" pointer-events="none"/><path d="M 304 99.76 L 300 91.76 L 304 93.76 L 308 91.76 Z" fill="#000000" stroke="#000000" stroke-width="2" stroke-miterlimit="10" pointer-events="none"/><g fill="#000000" font-family="Helvetica" text-anchor="middle" font-size="11px"><rect fill="#ffffff" stroke="none" x="357" y="57" width="23" height="14" stroke-width="0"/><text x="368" y="66">TCP</text></g><path d="M 462 50.24 Q 462 50.24 462 93.76" fill="none" stroke="#000000" stroke-width="2" stroke-miterlimit="10" pointer-events="none"/><path d="M 462 44.24 L 466 52.24 L 462 50.24 L 458 52.24 Z" fill="#000000" stroke="#000000" stroke-width="2" stroke-miterlimit="10" pointer-events="none"/><path d="M 462 99.76 L 458 91.76 L 462 93.76 L 466 91.76 Z" fill="#000000" stroke="#000000" stroke-width="2" stroke-miterlimit="10" pointer-events="none"/><g fill="#000000" font-family="Helvetica" text-anchor="middle" font-size="11px"><rect fill="#ffffff" stroke="none" x="451" y="66" width="23" height="14" stroke-width="0"/><text x="462" y="75.5">TCP</text></g><path d="M 304 190.24 Q 304 237 369 237 Q 434 237 434 295.76" fill="none" stroke="#000000" stroke-width="2" stroke-miterlimit="10" pointer-events="none"/><path d="M 304 184.24 L 308 192.24 L 304 190.24 L 300 192.24 Z" fill="#000000" stroke="#000000" stroke-width="2" stroke-miterlimit="10" pointer-events="none"/><path d="M 434 301.76 L 430 293.76 L 434 295.76 L 438 293.76 Z" fill="#000000" stroke="#000000" stroke-width="2" stroke-miterlimit="10" pointer-events="none"/><g fill="#000000" font-family="Helvetica" text-anchor="middle" font-size="11px"><rect fill="#ffffff" stroke="none" x="346" y="225" width="60" height="27" stroke-width="0"/><text x="375" y="234">MsgQueue:</text><text x="375" y="247">TCP</text></g><path d="M 612 190.24 Q 612 232 551 232 Q 490 232 490 295.76" fill="none" stroke="#000000" stroke-width="2" stroke-miterlimit="10" pointer-events="none"/><path d="M 612 184.24 L 616 192.24 L 612 190.24 L 608 192.24 Z" fill="#000000" stroke="#000000" stroke-width="2" stroke-miterlimit="10" pointer-events="none"/><path d="M 490 301.76 L 486 293.76 L 490 295.76 L 494 293.76 Z" fill="#000000" stroke="#000000" stroke-width="2" stroke-miterlimit="10" pointer-events="none"/><g fill="#000000" font-family="Helvetica" text-anchor="middle" font-size="11px"><rect fill="#ffffff" stroke="none" x="511" y="220" width="60" height="27" stroke-width="0"/><text x="540" y="229">MsgQueue:</text><text x="540" y="242">TCP</text></g><path d="M 422 332 Q 272 332 272 403.76" fill="none" stroke="#000000" stroke-width="2" stroke-miterlimit="10" pointer-events="none"/><path d="M 272 409.76 L 268 401.76 L 272 403.76 L 276 401.76 Z" fill="#000000" stroke="#000000" stroke-width="2" stroke-miterlimit="10" pointer-events="none"/><g fill="#000000" font-family="Helvetica" text-anchor="middle" font-size="11px"><rect fill="#ffffff" stroke="none" x="278" y="340" width="60" height="27" stroke-width="0"/><text x="307" y="349">MsgQueue:</text><text x="307" y="362">CAN</text></g><path d="M 413.76 612 Q 365 612 365 584.5 Q 365 557 307 557" fill="none" stroke="#0000ff" stroke-width="2" stroke-miterlimit="10" pointer-events="none"/><path d="M 419.76 612 L 411.76 616 L 413.76 612 L 411.76 608 Z" fill="#0000ff" stroke="#0000ff" stroke-width="2" stroke-miterlimit="10" pointer-events="none"/><g fill="#000000" font-family="Helvetica" text-anchor="middle" font-size="11px"><rect fill="#ffffff" stroke="none" x="336" y="572" width="60" height="27" stroke-width="0"/><text x="365" y="581">MsgQueue:</text><text x="365" y="594">CAN</text></g><path d="M 425.76 475 Q 365 475 365 516 Q 365 557 307 557" fill="none" stroke="#0000ff" stroke-width="2" stroke-miterlimit="10" pointer-events="none"/><path d="M 431.76 475 L 423.76 479 L 425.76 475 L 423.76 471 Z" fill="#0000ff" stroke="#0000ff" stroke-width="2" stroke-miterlimit="10" pointer-events="none"/><path d="M 508.73 607.25 L 597.27 544.75" fill="none" stroke="#0000ff" stroke-width="2" stroke-miterlimit="10" pointer-events="none"/><path d="M 503.83 610.71 L 508.06 602.83 L 508.73 607.25 L 512.67 609.36 Z" fill="#0000ff" stroke="#0000ff" stroke-width="2" stroke-miterlimit="10" pointer-events="none"/><path d="M 602.17 541.29 L 597.94 549.17 L 597.27 544.75 L 593.33 542.64 Z" fill="#0000ff" stroke="#0000ff" stroke-width="2" stroke-miterlimit="10" pointer-events="none"/><path d="M 596.26 481.19 L 509.74 449.81" fill="none" stroke="#0000ff" stroke-width="2" stroke-miterlimit="10" pointer-events="none"/><path d="M 601.9 483.24 L 593.01 484.27 L 596.26 481.19 L 595.74 476.75 Z" fill="#0000ff" stroke="#0000ff" stroke-width="2" stroke-miterlimit="10" pointer-events="none"/><path d="M 504.1 447.76 L 512.99 446.73 L 509.74 449.81 L 510.26 454.25 Z" fill="#0000ff" stroke="#0000ff" stroke-width="2" stroke-miterlimit="10" pointer-events="none"/><path d="M 422 447 Q 422 447 315.24 447" fill="none" stroke="#0000ff" stroke-width="2" stroke-miterlimit="10" pointer-events="none"/><path d="M 309.24 447 L 317.24 443 L 315.24 447 L 317.24 451 Z" fill="#0000ff" stroke="#0000ff" stroke-width="2" stroke-miterlimit="10" pointer-events="none"/><g fill="#000000" font-family="Helvetica" text-anchor="middle" font-size="11px"><rect fill="#ffffff" stroke="none" x="335" y="435" width="60" height="27" stroke-width="0"/><text x="364.5" y="444">MsgQueue:</text><text x="364.5" y="457">CAN</text></g><path d="M 434 584 Q 434 512 383 512 Q 332 512 332 492 Q 332 472 305.24 472" fill="none" stroke="#0000ff" stroke-width="2" stroke-miterlimit="10" pointer-events="none"/><path d="M 299.24 472 L 307.24 468 L 305.24 472 L 307.24 476 Z" fill="#0000ff" stroke="#0000ff" stroke-width="2" stroke-miterlimit="10" pointer-events="none"/><g fill="#000000" font-family="Helvetica" text-anchor="middle" font-size="11px"><rect fill="#ffffff" stroke="none" x="352" y="500" width="60" height="27" stroke-width="0"/><text x="381.5" y="509">MsgQueue:</text><text x="381.5" y="522">CAN</text></g><path d="M 510.24 332 Q 692 332 692 512 Q 692 692 499.5 692 Q 307 692 307 642 Q 307 592 272 592" fill="none" stroke="#000000" stroke-width="2" stroke-miterlimit="10" pointer-events="none"/><path d="M 504.24 332 L 512.24 328 L 510.24 332 L 512.24 336 Z" fill="#000000" stroke="#000000" stroke-width="2" stroke-miterlimit="10" pointer-events="none"/><g fill="#000000" font-family="Helvetica" text-anchor="middle" font-size="11px"><rect fill="#ffffff" stroke="none" x="439" y="664" width="60" height="27" stroke-width="0"/><text x="468.92" y="673">MsgQueue:</text><text x="468.92" y="686">CAN</text></g><path d="M 625.53 466.9 L 496.47 365.1" fill="none" stroke="#0000ff" stroke-width="2" stroke-miterlimit="10" pointer-events="none"/><path d="M 630.24 470.62 L 621.49 468.8 L 625.53 466.9 L 626.44 462.52 Z" fill="#0000ff" stroke="#0000ff" stroke-width="2" stroke-miterlimit="10" pointer-events="none"/><path d="M 491.76 361.38 L 500.51 363.2 L 496.47 365.1 L 495.56 369.48 Z" fill="#0000ff" stroke="#0000ff" stroke-width="2" stroke-miterlimit="10" pointer-events="none"/></g></svg>